<svg width="50" height="25" viewBox="0 0 50 25" fill="none" xmlns="http://www.w3.org/2000/svg">
<g clip-path="url(#clip0_9_3099)">
<path d="M16.2257 15.2781H7.06452V20.4135H1.64499V10.1429H16.7419C18.4274 10.1429 19.4031 9.1629 19.4031 7.83009C19.4031 6.49728 18.4274 5.55653 16.7419 5.55653H1.59695L5.20157 0.333008H16.2418C21.6854 0.333008 24.871 3.39068 24.871 7.85952C24.871 12.3284 21.6934 15.2781 16.2257 15.2781Z" fill="#FF2BFF"/>
<path d="M43.274 19.6591L32.4916 8.6144V20.3745H27.5482V3.71436C27.5062 3.22069 27.5537 2.7218 27.6868 2.2526C27.8198 1.78339 28.0354 1.35521 28.3188 0.997801C28.6021 0.640395 28.9463 0.362443 29.3272 0.183361C29.7081 0.00427891 30.1164 -0.0716059 30.5239 -0.0390312C31.3409 -0.0440977 32.1264 0.343352 32.7094 1.03895L43.4838 12.0837V0.323567H48.4596V16.9837C48.5015 17.4812 48.4537 17.9838 48.3194 18.4566C48.1851 18.9293 47.9675 19.3608 47.6819 19.721C47.3963 20.0811 47.0493 20.3612 46.6655 20.5417C46.2817 20.7223 45.8701 20.799 45.4594 20.7665C45.0527 20.769 44.6499 20.6721 44.2745 20.4819C43.8991 20.2917 43.5588 20.0119 43.274 19.6591Z" fill="#FF2BFF"/>
<path d="M0.000228882 25.0001V24.4023H50.0002V25.0001H0.000228882Z" fill="#FF2BFF"/>
</g>
<defs>
<clipPath id="clip0_9_3099">
<rect width="50" height="25" fill="white"/>
</clipPath>
</defs>
</svg>
