<svg width="17" height="4" viewBox="0 0 17 4" fill="none" xmlns="http://www.w3.org/2000/svg">
<path d="M8.50023 5.16672e-08C8.23321 4.61324e-08 7.96879 0.0517315 7.72209 0.152241C7.4754 0.25275 7.25124 0.40007 7.06242 0.585787C6.87361 0.771504 6.72383 0.991982 6.62164 1.23463C6.51946 1.47728 6.46686 1.73736 6.46686 2C6.46686 2.26264 6.51946 2.52272 6.62164 2.76537C6.72383 3.00802 6.87361 3.2285 7.06242 3.41421C7.25124 3.59993 7.4754 3.74725 7.72209 3.84776C7.96879 3.94827 8.23321 4 8.50023 4C9.03951 3.99988 9.55666 3.78905 9.9379 3.41389C10.3191 3.03874 10.5333 2.52998 10.5331 1.99955C10.533 1.46911 10.3187 0.960453 9.93725 0.585465C9.55583 0.210478 9.03859 -0.000120431 8.49931 5.16672e-08L8.50023 5.16672e-08ZM2.03337 5.16672e-08C1.76634 4.61324e-08 1.50193 0.0517315 1.25523 0.152241C1.00853 0.25275 0.784375 0.40007 0.595559 0.585787C0.406744 0.771504 0.256967 0.991982 0.154781 1.23463C0.0525946 1.47728 0 1.73736 0 2C0 2.26264 0.0525946 2.52272 0.154781 2.76537C0.256967 3.00802 0.406744 3.2285 0.595559 3.41421C0.784375 3.59993 1.00853 3.74725 1.25523 3.84776C1.50193 3.94827 1.76634 4 2.03337 4C2.57265 3.99988 3.0898 3.78905 3.47104 3.41389C3.85228 3.03874 4.06639 2.52998 4.06627 1.99955C4.06615 1.46911 3.8518 0.960453 3.47039 0.585465C3.08897 0.210478 2.57173 -0.000120431 2.03244 5.16672e-08L2.03337 5.16672e-08ZM14.9671 5.16672e-08C14.7001 4.61324e-08 14.4357 0.0517315 14.189 0.152241C13.9423 0.25275 13.7181 0.40007 13.5293 0.585787C13.3405 0.771504 13.1907 0.991982 13.0885 1.23463C12.9863 1.47728 12.9337 1.73736 12.9337 2C12.9337 2.26264 12.9863 2.52272 13.0885 2.76537C13.1907 3.00802 13.3405 3.2285 13.5293 3.41421C13.7181 3.59993 13.9423 3.74725 14.189 3.84776C14.4357 3.94827 14.7001 4 14.9671 4C15.5064 3.99988 16.0235 3.78905 16.4048 3.41389C16.786 3.03874 17.0001 2.52998 17 1.99955C16.9999 1.46911 16.7855 0.960453 16.4041 0.585465C16.0227 0.210478 15.5055 -0.000120431 14.9662 5.16672e-08L14.9671 5.16672e-08Z" fill="#576170"/>
</svg>
