<svg width="50" height="33" viewBox="0 0 50 33" fill="none" xmlns="http://www.w3.org/2000/svg">
<path d="M0.498474 1.24871C1.21056 0.575133 1.9692 0.257036 2.79723 0.0947935C3.14004 0.0306999 3.4883 0.000172578 3.83705 0.0036459C17.9698 -0.0012153 32.1026 -0.0012153 46.2353 0.0036459C46.9949 0.0036459 47.7179 0.160411 48.3524 0.586982C48.6354 0.776569 48.8701 1.04273 49.1649 1.30159C48.7779 1.6361 48.4519 1.92412 48.1196 2.20303C42.7224 6.72759 37.3242 11.2516 31.9252 15.7749C29.9359 17.4411 27.9238 19.0817 25.95 20.7661C24.8545 21.6986 23.9416 21.5336 23.0287 20.7033C20.6286 18.5157 18.1335 16.4339 15.6778 14.3074C10.6974 9.99311 5.71739 5.68093 0.737661 1.37086C0.662756 1.32135 0.582526 1.28037 0.498474 1.24871Z" fill="url(#paint0_linear_9_329)"/>
<path d="M2.68219 33L18.6703 20.3378C19.6636 21.1927 20.6532 22.0395 21.6364 22.8945C22.2308 23.4122 22.8132 23.9445 23.4048 24.4649C23.9964 24.9854 24.7742 25.0729 25.4132 24.5807C26.5297 23.7184 27.6043 22.8061 28.6998 21.911C29.4301 21.3149 30.1468 20.7106 30.9036 20.0817L47.2149 33H2.68219Z" fill="url(#paint1_linear_9_329)"/>
<path d="M33.3384 18.0491L49.9035 4.13538C50.1034 5.43879 49.9656 30.3312 49.7373 31.0376L33.3384 18.0491Z" fill="url(#paint2_linear_9_329)"/>
<path d="M0.149722 31.0367C0.0931204 30.5809 0.00639051 30.2163 0.00547758 29.8518C-0.00182586 21.4552 -0.00182586 13.059 0.00547758 4.66311C0.00547758 4.53277 0.0209981 4.40243 0.034692 4.18823L16.2848 18.266L0.149722 31.0367Z" fill="url(#paint3_linear_9_329)"/>
<defs>
<linearGradient id="paint0_linear_9_329" x1="24.8317" y1="0" x2="24.8317" y2="21.3985" gradientUnits="userSpaceOnUse">
<stop stop-color="#0EECEC"/>
<stop offset="1" stop-color="#FF2BFF"/>
</linearGradient>
<linearGradient id="paint1_linear_9_329" x1="24.9486" y1="20.0817" x2="24.9486" y2="33" gradientUnits="userSpaceOnUse">
<stop stop-color="#0EECEC"/>
<stop offset="1" stop-color="#FF2BFF"/>
</linearGradient>
<linearGradient id="paint2_linear_9_329" x1="41.6692" y1="4.13538" x2="41.6692" y2="31.0376" gradientUnits="userSpaceOnUse">
<stop stop-color="#0EECEC"/>
<stop offset="1" stop-color="#FF2BFF"/>
</linearGradient>
<linearGradient id="paint3_linear_9_329" x1="8.14242" y1="4.18823" x2="8.14242" y2="31.0367" gradientUnits="userSpaceOnUse">
<stop stop-color="#0EECEC"/>
<stop offset="1" stop-color="#FF2BFF"/>
</linearGradient>
</defs>
</svg>
