<svg width="50" height="50" viewBox="0 0 50 50" fill="none" xmlns="http://www.w3.org/2000/svg">
<path d="M49.9831 25.2279C49.9831 28.9278 50.0285 32.6282 49.9706 36.3273C49.9077 40.3495 48.3334 43.7277 45.3648 46.4407C43.7018 47.9603 41.7597 48.9832 39.5814 49.5513C38.501 49.8386 37.3883 49.9862 36.2704 49.9906C28.7636 49.9939 21.2567 50.0123 13.7499 49.9864C7.40865 49.9647 1.8406 45.4849 0.397137 39.3067C0.156583 38.3003 0.0325927 37.2696 0.027623 36.2348C0.027623 28.7324 -0.0486081 21.2257 0.0522051 13.7233C0.123441 8.42987 2.61086 4.42855 7.1712 1.75851C9.25411 0.538109 11.5453 0.0079356 13.9573 0.0079356C21.4296 0.0079356 28.9019 -0.0170693 36.3737 0.0216934C39.6918 0.0387823 42.63 1.19832 45.1461 3.36444C47.6202 5.49431 49.1661 8.18187 49.7494 11.3963C49.8986 12.2504 49.9739 13.1158 49.9743 13.9829C49.9981 17.7313 49.9843 21.48 49.9843 25.2283L49.9831 25.2279ZM25.0026 38.8786C32.6678 38.8786 38.864 32.6853 38.879 25.0116C38.894 17.3749 32.7169 11.2045 25.1734 11.1166C17.425 11.0266 11.1279 17.309 11.1292 24.9865C11.1304 32.6641 17.3308 38.8786 25.0026 38.8786ZM44.4363 8.33859C44.4363 6.80976 43.1794 5.55392 41.6535 5.5585C40.9201 5.56189 40.2177 5.85436 39.6985 6.37253C39.1793 6.8907 38.8851 7.59278 38.8799 8.3265C38.8719 9.85242 40.1225 11.1124 41.6518 11.1191C43.1757 11.1228 44.4358 9.86576 44.4363 8.33859Z" fill="url(#paint0_linear_9_338)"/>
<path d="M33.3314 24.9934C33.3372 29.5849 29.6013 33.3295 25.0105 33.3295C20.4198 33.3295 16.6822 29.5995 16.6788 25.003C16.6755 20.4065 20.4006 16.6715 24.9993 16.6694C26.0927 16.6685 27.1756 16.883 28.1861 17.3008C29.1966 17.7186 30.115 18.3315 30.8887 19.1045C31.6625 19.8775 32.2764 20.7954 32.6955 21.8059C33.1147 22.8163 33.3307 23.8994 33.3314 24.9934Z" fill="url(#paint1_linear_9_338)"/>
<defs>
<linearGradient id="paint0_linear_9_338" x1="25" y1="0" x2="25" y2="50" gradientUnits="userSpaceOnUse">
<stop stop-color="#0EECEC"/>
<stop offset="1" stop-color="#FF2BFF"/>
</linearGradient>
<linearGradient id="paint1_linear_9_338" x1="25.0051" y1="16.6694" x2="25.0051" y2="33.3295" gradientUnits="userSpaceOnUse">
<stop stop-color="#0EECEC"/>
<stop offset="1" stop-color="#FF2BFF"/>
</linearGradient>
</defs>
</svg>
