<svg width="20" height="10" viewBox="0 0 20 10" fill="none" xmlns="http://www.w3.org/2000/svg">
<path d="M20 5.03684C19.4331 5.56066 18.8272 6.04167 18.1873 6.47581C16.7876 7.42441 15.2788 8.1471 13.6443 8.60915C12.4802 8.93839 11.2927 9.12869 10.0822 9.11877C9.26511 9.11206 8.45956 8.96728 7.66762 8.76589C4.89713 8.061 2.5473 6.64685 0.548956 4.64164C0.373165 4.46476 0.197371 4.28778 0.0215797 4.11071C0.0125084 4.09523 0.0052681 4.07878 0 4.06168C0.325174 3.79198 0.646805 3.5071 0.986168 3.24441C2.56415 2.02115 4.3062 1.10611 6.23419 0.544533C7.41398 0.200992 8.61713 0.00105381 9.84924 0.000470161C10.6146 0.000470161 11.3663 0.127729 12.1089 0.30023C14.2879 0.807224 16.2297 1.79144 17.9795 3.16064C18.7034 3.72631 19.3473 4.37457 20 5.03684ZM18.9988 4.12093C18.987 4.10594 18.9743 4.09161 18.9609 4.07802C18.2486 3.48811 17.4855 2.96072 16.6803 2.50187C15.0098 1.55531 13.2393 0.904421 11.3093 0.717034C10.1064 0.600283 8.92456 0.714408 7.75778 1.00891C5.95809 1.46279 4.33664 2.27917 2.85296 3.37313C2.1873 3.86305 1.56542 4.40843 0.99415 5.00328C1.04145 5.04414 1.08431 5.08267 1.12895 5.12003C1.78896 5.65841 2.49217 6.14296 3.23164 6.56892C4.95891 7.55926 6.79201 8.2408 8.79863 8.40775C10.0059 8.50874 11.1931 8.38791 12.3614 8.07939C13.9142 7.67076 15.34 6.98951 16.6608 6.08994C17.5073 5.51565 18.2909 4.85575 18.9988 4.12093Z" fill="black"/>
<path d="M13.1222 4.86292C12.7941 3.87228 11.8564 3.58508 11.1466 3.85623C10.4147 4.13585 10.0378 4.93618 10.2879 5.68573C10.5584 6.49628 11.3326 6.81005 12.3521 6.52255C11.5221 7.51493 9.88348 7.9548 8.47784 7.19387C7.0722 6.43294 6.46471 4.74208 7.0654 3.29553C7.68619 1.80024 9.31206 1.01888 10.8868 1.46136C12.3566 1.87233 13.3626 3.3866 13.1222 4.86292Z" fill="black"/>
</svg>
