<svg width="38" height="70" viewBox="0 0 38 70" fill="none" xmlns="http://www.w3.org/2000/svg">
<path d="M37.9991 35.0063C37.9991 44.6921 37.9991 54.3787 37.9991 64.0663C37.9991 64.841 37.9143 65.6001 37.6399 66.3277C36.8599 68.3955 35.3342 69.557 33.1712 69.9134C32.7444 69.9836 32.3038 69.9944 31.8696 69.9948C23.2939 69.9992 14.7186 70.0008 6.14342 69.9996C5.39255 69.9996 4.64989 69.9457 3.93261 69.715C1.83569 69.0413 0.589709 67.6025 0.139407 65.476C0.0469509 65.0146 0.00240863 64.5449 0.00648279 64.0744C0.000259719 44.664 -0.00148329 25.2534 0.00125486 5.84269C0.00125486 4.45039 0.363064 3.17253 1.25471 2.07601C2.22849 0.878783 3.51331 0.239668 5.03484 0.057967C5.43079 0.0160219 5.82891 -0.00234124 6.22706 0.00297423C14.8024 1.61319e-06 23.3778 -0.000743719 31.9532 0.000742591C32.7926 0.000742591 33.6189 0.0903007 34.4063 0.399081C36.4122 1.18534 37.5491 2.67166 37.9098 4.76252C37.9785 5.16271 37.9935 5.57589 37.9938 5.98314C37.9996 15.6575 38.0013 25.3319 37.9991 35.0063ZM34.394 12.0688H3.64324V58.6353H34.394V12.0688ZM19.0158 5.61566C17.9842 5.61566 16.9525 5.60711 15.9212 5.61826C15.1767 5.62643 14.5965 6.16856 14.5181 6.89722C14.4232 7.78046 15.0781 8.49501 16.0093 8.51099C16.705 8.52251 17.4013 8.51322 18.0973 8.51322C19.3773 8.51322 20.6574 8.51322 21.9376 8.51322C22.3938 8.51322 22.8008 8.38726 23.11 8.04318C23.5207 7.58688 23.6264 7.05775 23.3829 6.49295C23.1395 5.92815 22.6952 5.62272 22.0731 5.61715C21.0541 5.6086 20.0348 5.61529 19.0158 5.61566ZM18.8168 66.6015C20.3593 66.5922 21.5302 65.3958 21.5242 63.8352C21.5183 62.2886 20.3197 61.0833 18.7899 61.0855C17.2662 61.0881 16.0105 62.3448 16.0164 63.8615C16.0224 65.3783 17.2777 66.6108 18.8168 66.6015Z" fill="url(#paint0_linear_9_341)"/>
<path d="M34.394 12.0687V58.6352H3.64319V12.0687H34.394Z" fill="black"/>
<path d="M19.0157 5.61493C20.0347 5.61493 21.054 5.60825 22.073 5.61754C22.695 5.62312 23.1405 5.93152 23.3828 6.49334C23.6251 7.05517 23.5199 7.58727 23.1099 8.04357C22.8007 8.38765 22.3937 8.51436 21.9374 8.51361C20.6575 8.51188 19.3774 8.51188 18.0972 8.51361C17.4012 8.51361 16.7048 8.5229 16.0092 8.51138C15.0758 8.49578 14.4231 7.78085 14.5179 6.89761C14.5963 6.16895 15.1766 5.62682 15.9211 5.61865C16.9524 5.60676 17.9841 5.6153 19.0157 5.61493Z" fill="black"/>
<path d="M18.8168 66.6019C17.2777 66.6111 16.0227 65.3831 16.0164 63.8619C16.01 62.3406 17.2661 61.0884 18.7899 61.0858C20.3207 61.0836 21.5182 62.289 21.5242 63.8355C21.5301 65.3961 20.3592 66.5926 18.8168 66.6019Z" fill="black"/>
<defs>
<linearGradient id="paint0_linear_9_341" x1="19" y1="0" x2="19" y2="70" gradientUnits="userSpaceOnUse">
<stop stop-color="#0EECEC"/>
<stop offset="1" stop-color="#FF2BFF"/>
</linearGradient>
</defs>
</svg>
