<svg width="50" height="42" viewBox="0 0 50 42" fill="none" xmlns="http://www.w3.org/2000/svg">
<path d="M19.6135 27.7029C20.9917 26.4676 22.3287 25.2627 23.6683 24.0569L35.9478 13.0046C37.5858 11.5318 39.2235 10.059 40.8608 8.58624C41.0887 8.38005 41.4572 8.16926 41.2633 7.80751C41.0694 7.44576 40.6569 7.49182 40.3573 7.63357C39.6533 7.96057 38.9693 8.32942 38.3092 8.73815C32.5021 12.3943 26.6999 16.0585 20.9026 19.7306C18.4741 21.265 16.0401 22.7921 13.6162 24.333C13.3249 24.5171 13.0832 24.5732 12.735 24.4628C9.09821 23.3075 5.45223 22.18 1.8136 21.0266C1.37684 20.8903 0.960961 20.6942 0.577749 20.444C-0.105872 19.9837 -0.208779 19.1893 0.408685 18.6462C0.959992 18.162 1.59676 17.7083 2.27394 17.4413C7.1769 15.5083 12.1056 13.6351 17.0159 11.7343C20.8172 10.2615 24.6129 8.77957 28.4151 7.30956C32.8017 5.61525 37.1901 3.92524 41.5803 2.23952C43.3188 1.56941 45.0563 0.896849 46.7929 0.221827C48.5387 -0.45657 49.9813 0.468504 49.9997 2.34906C50.0079 3.10385 49.8582 3.86968 49.702 4.61436C48.7693 9.05846 47.811 13.497 46.8664 17.9384C45.8832 22.5592 44.9031 27.1803 43.9261 31.8018C43.3748 34.4187 42.8419 37.0421 42.2382 39.648C42.0863 40.2842 41.7971 40.8792 41.391 41.3914C40.8186 42.1011 39.7371 42.1794 38.7181 41.6823C38.2027 41.4182 37.7122 41.1079 37.2525 40.7553C31.4644 36.4966 25.6809 32.2317 19.902 27.9606C19.8184 27.8971 19.743 27.8207 19.6135 27.7029Z" fill="url(#paint0_linear_9_334)"/>
<path d="M40.6421 8.12125C40.5176 8.2794 40.3819 8.42828 40.2359 8.56675C33.1149 14.4468 25.9917 20.3248 18.8663 26.2005C18.856 26.2118 18.8442 26.2216 18.8314 26.23C17.8731 26.7141 17.7352 27.4782 17.8556 28.4962C18.1441 30.9263 18.3049 33.3748 18.5181 35.8104C18.6017 36.7705 18.6927 37.7296 18.7717 38.6906C18.791 38.9318 18.7717 39.1748 18.7717 39.415C18.1019 39.5375 17.6369 39.3037 17.4605 38.6786C16.8118 36.3688 16.1775 34.0553 15.5576 31.7381C15.0651 29.9082 14.6047 28.07 14.1058 26.2419C14.0194 25.9271 14.1003 25.7817 14.3511 25.616C19.1291 22.3734 23.9071 19.1254 28.6851 15.8718C32.4132 13.3367 36.1431 10.8042 39.8748 8.27407C40.0733 8.13875 40.3205 8.07614 40.5447 7.97949L40.6421 8.12125Z" fill="url(#paint1_linear_9_334)"/>
<path d="M19.6861 39.2716C19.6181 35.8363 19.5501 32.4379 19.4802 28.9336L26.0959 33.4007C24.7682 35.0438 20.3733 39.0856 19.6861 39.2716Z" fill="url(#paint2_linear_9_334)"/>
<defs>
<linearGradient id="paint0_linear_9_334" x1="25" y1="0" x2="25" y2="42" gradientUnits="userSpaceOnUse">
<stop stop-color="#0EECEC"/>
<stop offset="1" stop-color="#FF2BFF"/>
</linearGradient>
<linearGradient id="paint1_linear_9_334" x1="27.3572" y1="7.97949" x2="27.3572" y2="39.4464" gradientUnits="userSpaceOnUse">
<stop stop-color="#0EECEC"/>
<stop offset="1" stop-color="#FF2BFF"/>
</linearGradient>
<linearGradient id="paint2_linear_9_334" x1="22.7881" y1="28.9336" x2="22.7881" y2="39.2716" gradientUnits="userSpaceOnUse">
<stop stop-color="#0EECEC"/>
<stop offset="1" stop-color="#FF2BFF"/>
</linearGradient>
</defs>
</svg>
