<svg width="25" height="51" viewBox="0 0 25 51" fill="none" xmlns="http://www.w3.org/2000/svg">
<path d="M12.8996 0C13.346 0.136534 13.8153 0.225069 14.2329 0.418137C15.9529 1.20961 16.9396 3.08109 16.6617 4.9563C16.3887 6.79792 14.9081 8.2902 13.0649 8.583C10.7326 8.9526 8.47233 7.32752 8.1102 5.02031C7.73686 2.63362 9.36088 0.402136 11.7326 0.045867C11.784 0.034593 11.8345 0.0194384 11.8836 0.000533451L12.8996 0Z" fill="black"/>
<path d="M17.7097 35.3258V35.7189C17.7097 39.8789 17.7097 44.039 17.7097 48.199C17.7097 49.1723 17.2766 49.886 16.4137 50.2876C15.0803 50.9084 13.5609 49.8331 13.5465 48.2753C13.5326 46.7819 13.5427 45.2886 13.5427 43.7952C13.5427 40.8797 13.5449 37.9641 13.5491 35.0485C13.5491 34.8277 13.4894 34.7061 13.2622 34.705C12.7488 34.7029 12.2352 34.7029 11.7214 34.705C11.4744 34.705 11.4014 34.833 11.4046 35.0784C11.412 39.5317 11.4131 43.9853 11.4078 48.439C11.4078 49.3457 10.7246 50.1958 9.85362 50.4017C8.55601 50.7073 7.25094 49.6801 7.2472 48.3371C7.2408 46.0971 7.2472 43.8571 7.2472 41.6171C7.2472 39.6082 7.2472 37.5993 7.2472 35.5904C7.2472 35.512 7.23868 35.4341 7.23228 35.3237H6.93307C5.81307 35.3237 4.69306 35.3317 3.57305 35.3152C3.39385 35.3125 3.21465 35.2042 3.03971 35.1338C2.98638 35.112 2.94531 35.0544 2.89571 35.0165C2.37037 34.6122 2.08663 34.1226 2.16077 33.4165C2.20557 32.9898 2.24024 32.5824 2.38584 32.1738C4.28097 26.8447 6.16951 21.5136 8.05148 16.1806C8.08401 16.0884 8.12188 15.9977 8.14535 15.9033C8.21042 15.6404 8.12348 15.4276 7.93201 15.3641C7.67761 15.2798 7.46054 15.3812 7.35868 15.651C7.03014 16.5236 6.708 17.3977 6.38427 18.2718C5.35066 21.0608 4.31777 23.85 3.28558 26.6394C3.14585 27.018 2.88237 27.2954 2.50797 27.386C2.01688 27.4997 1.51752 27.5741 1.01462 27.6084C0.717556 27.6335 0.489825 27.4367 0.352758 27.1818C0.0327552 26.5898 -0.134718 26.0084 0.134084 25.3071C1.41409 21.9663 2.65891 18.6105 3.91225 15.259C3.98052 15.0772 4.01892 14.8857 4.07225 14.6963C4.69786 12.5731 6.16773 11.3081 8.22428 10.6745C8.70184 10.5341 9.19692 10.4622 9.69469 10.4611C11.579 10.4382 13.4649 10.4158 15.3481 10.4648C17.4062 10.5182 19.034 11.4174 20.155 13.1667C20.4846 13.6809 20.6681 14.2558 20.7486 14.8633C20.7663 14.9771 20.7982 15.0882 20.8436 15.194C22.1983 18.5259 23.5545 21.8571 24.9124 25.1876C24.9423 25.2612 25.0031 25.3359 24.9999 25.4084C24.9689 26.1418 24.8692 26.8612 24.3599 27.4388C24.3067 27.492 24.2432 27.5336 24.1733 27.5611C24.1034 27.5886 24.0286 27.6015 23.9535 27.5988C23.506 27.5551 23.0468 27.514 22.6201 27.3855C22.1199 27.233 21.8015 26.8458 21.6132 26.353C20.2414 22.7618 18.8676 19.1707 17.4916 15.5796C17.3673 15.2542 17.1374 15.1486 16.8441 15.2846C16.6153 15.3913 16.5731 15.6425 16.6803 15.9246C17.0281 16.8372 17.3603 17.755 17.6937 18.6729C19.3609 23.2815 21.0473 27.8836 22.6729 32.5066C22.9668 33.3418 23.0004 34.2602 22.2463 34.9856C22.0159 35.2069 21.7812 35.3344 21.4463 35.3296C20.3086 35.3146 19.1705 35.3242 18.0329 35.3242L17.7097 35.3258Z" fill="black"/>
</svg>
