<svg width="29" height="28" viewBox="0 0 29 28" fill="none" xmlns="http://www.w3.org/2000/svg">
<path fill-rule="evenodd" clip-rule="evenodd" d="M6.43532 0H1.27606L0.0188963 18.9391C-0.0571966 20.0555 0.0970519 21.1757 0.472061 22.23C0.847071 23.2843 1.43483 24.2502 2.19885 25.0678C2.96286 25.8854 3.88681 26.5372 4.91331 26.9827C5.93982 27.4282 7.04695 27.6579 8.16596 27.6576H20.2151C21.3327 27.6578 22.4384 27.4285 23.4637 26.984C24.489 26.5395 25.4122 25.8892 26.1759 25.0734C26.9397 24.2576 27.5278 23.2936 27.9039 22.2413C28.28 21.1889 28.436 20.0705 28.3622 18.9554L27.0887 0H16.762H6.43532ZM2.81078 1.63268H6.43532V2.66127C6.43532 3.6797 6.63592 4.68816 7.02566 5.62907C7.41539 6.56997 7.98664 7.4249 8.70678 8.14504C9.42692 8.86518 10.2818 9.43643 11.2228 9.82617C12.1637 10.2159 13.1721 10.4165 14.1905 10.4165C15.209 10.4165 16.2174 10.2159 17.1583 9.82617C18.0993 9.43643 18.9542 8.86518 19.6743 8.14504C20.3945 7.4249 20.9657 6.56997 21.3554 5.62907C21.7452 4.68816 21.9458 3.6797 21.9458 2.66127V1.63268H25.5703L26.7458 19.0534C26.8063 19.9473 26.6822 20.8442 26.3812 21.6881C26.0802 22.5321 25.6087 23.3051 24.9962 23.959C24.3836 24.6129 23.643 25.1338 22.8205 25.4892C21.998 25.8446 21.1111 26.027 20.2151 26.0249H8.16596C7.27132 26.0247 6.38626 25.8407 5.56568 25.4843C4.7451 25.1279 4.00649 24.6067 3.39568 23.953C2.78487 23.2993 2.31488 22.5271 2.01486 21.6843C1.71484 20.8415 1.59119 19.946 1.65157 19.0534L2.81078 1.63268ZM8.068 1.63268H20.3131V2.66127C20.3131 4.28507 19.668 5.84236 18.5198 6.99056C17.3716 8.13876 15.8143 8.78382 14.1905 8.78382C12.5667 8.78382 11.0095 8.13876 9.86125 6.99056C8.71305 5.84236 8.068 4.28507 8.068 2.66127V1.63268Z" fill="#03060E"/>
</svg>
