<svg width="20" height="54" viewBox="0 0 20 54" fill="none" xmlns="http://www.w3.org/2000/svg">
<path d="M10.4612 0C10.8836 0.125471 11.3242 0.208361 11.725 0.383794C13.5628 1.18658 14.658 3.12485 14.4729 5.01657C14.2753 7.03716 12.6652 8.79602 10.6457 9.13497C7.65372 9.63742 4.95582 7.08599 5.32201 4.07241C5.57579 1.98255 7.12572 0.374142 9.19741 0.048258C9.24176 0.036727 9.28477 0.0205516 9.32572 0H10.4612Z" fill="black"/>
<path d="M8.85735 31.0123V31.4131C8.85735 38.0281 8.85735 44.643 8.85735 51.258C8.85735 51.4561 8.84997 51.6554 8.8318 51.853C8.7279 52.9924 8.06421 53.6408 6.92021 53.7061C6.65592 53.723 6.39059 53.7114 6.12878 53.6715C5.06881 53.5011 4.47666 52.8653 4.44884 51.786C4.41364 50.4234 4.43237 49.0608 4.43237 47.6982C4.43237 37.5061 4.43237 27.3142 4.43237 17.1225C4.43237 16.5775 4.51356 16.6547 3.94468 16.6462C3.76641 16.6462 3.58757 16.6462 3.36218 16.6462V16.9919C3.36218 21.1747 3.36218 25.357 3.36218 29.539C3.36218 29.7093 3.36729 29.8797 3.35536 30.05C3.29859 30.8863 2.69621 31.4733 1.82246 31.5551C1.04692 31.6272 0.216886 31.068 0.0499701 30.3441C0.0130048 30.1589 -0.00299433 29.9702 0.00227825 29.7815C0.00227825 25.0692 -0.0062376 20.3569 0.00965917 15.6447C0.00991959 15.1077 0.0817083 14.5731 0.223131 14.055C0.573427 12.8009 1.50396 12.0889 2.66442 11.6336C3.56543 11.2804 4.50731 11.1351 5.46907 11.1328C8.48756 11.1256 11.5066 11.1256 14.5263 11.1328C15.333 11.1328 16.129 11.2259 16.904 11.4678C18.8848 12.0866 19.976 13.5196 19.9896 15.5953C20.0078 18.3392 19.9964 21.0836 19.997 23.8275C19.997 25.5781 19.997 27.3288 19.997 29.0797C19.997 29.694 19.8835 30.2663 19.3992 30.704C18.4607 31.5494 17.1208 31.1855 16.7575 29.9716C16.6782 29.6894 16.64 29.3973 16.6439 29.1041C16.6371 25.0633 16.6383 21.0227 16.6473 16.9823C16.6473 16.7018 16.5639 16.6178 16.2959 16.6416C16.0722 16.6626 15.8417 16.6456 15.5857 16.6456C15.5777 16.8159 15.5652 16.9624 15.5652 17.1089C15.5652 22.7772 15.5652 28.4457 15.5652 34.1145C15.5652 39.8585 15.5641 45.6025 15.5618 51.3466C15.5631 51.5832 15.5458 51.8195 15.5101 52.0534C15.3506 53.0679 14.6801 53.6556 13.6201 53.7089C13.3739 53.7259 13.1267 53.7179 12.8821 53.6851C11.7682 53.5148 11.1726 52.8579 11.1448 51.7281C11.1192 50.6971 11.1312 49.6649 11.1312 48.6333C11.1312 42.8802 11.1332 37.1271 11.1374 31.374C11.1374 31.0958 11.0806 30.9953 10.7831 31.0078C10.1597 31.0305 9.53523 31.0123 8.85735 31.0123Z" fill="black"/>
</svg>
